<svg xmlns="http://www.w3.org/2000/svg" width="512" height="512" xml:space="preserve"><circle fill="#E5E5E5" cx="256" cy="256" r="256"/><path fill="#28E89A" d="M436.634 438.248c-42.882-18.692-108.77-30.665-182.671-30.665-71.6 0-135.676 11.239-178.597 28.938C121.731 483.138 185.929 512 256.872 512c70.06 0 133.536-28.154 179.762-73.752z"/><path opacity=".1" d="M286.109 510.229c96.716-11.334 176.945-76.564 209.845-164.86L264.076 118.267l-4.53 1.512-29.104-28.299-6.942-.314 10 9.208-7.167 22.958 8 48-23.303-26.72-22.239 15.345 7.542 8.625-1.75-.167-11.324-12.64L178 157l9.188 10.125-6.553-.507L224.5 214.25l1.25 9.25-13.919-15.664-32.005-6.675 37.654 38.636L249 376.333l-65.333-62-30.739 16.716L226 418l-23.413 5.429 83.522 86.8z"/><path fill="#0072A1" d="M264.564 118.106c-6.797 16.404-19.298 21.132-30.066 20.548 3.663-9.097 9.187-20.174 30.066-20.548zM211.03 144.614c-5.045 12.181-14.328 15.69-22.322 15.256 2.717-6.754 6.819-14.978 22.322-15.256zM221.269 86.396c7.163.702 10.699 5.547 11.981 10.371-3.958-.34-8.924-1.226-11.981-10.371zM174.348 151.396c7.163.702 10.699 5.546 11.981 10.37-3.958-.34-8.925-1.227-11.981-10.37zM265.391 235.498c-7.008 16.906-19.889 21.778-30.99 21.179 3.774-9.377 9.468-20.791 30.99-21.179zM353.196 320.124c-18.215 1.76-28.568-7.322-33.256-17.404 10.051-1.074 22.805-1.41 33.256 17.404zM394.798 310.631c-21.639 3.479-34.699-6.595-41.063-18.291 11.932-2.043 27.147-3.408 41.063 18.291zM336.565 271.064c-4.764 17.67-16.906 24.164-27.994 25.004 2.532-9.787 6.705-21.841 27.994-25.004zM210.658 345.287c-38.825 5.777-63.135-15.25-75.458-39.157 21.407-3.439 48.784-5.326 75.458 39.157zM216.168 213.523c-22.248 3.309-36.179-8.74-43.241-22.438 12.268-1.972 27.955-3.054 43.241 22.438z"/><path fill="#009799" d="M254.854 327.778c-11.425-21.218-23.988-38.151-25.611-54.485-2.13-21.432 8.909-38.151 16.646-67.202 6.354-23.864-30.016-66.252-10.052-109.324-20.242 24.771-8.703 56.957-7.648 82.804-10.85-4.926-33.479-14.17-47.851-12.801 19.138 2.05 38.824 13.807 47.84 19.836-.25 4.842-1.053 9.39-2.748 13.533-13.217 32.301-24.062 55.346-23.789 76.97.36 28.236 21.765 75.387 21.242 101.92-.24 12.154-9.969 28.441-18.746 46.574h67.468c3.381-8.641 4.695-18.776 1.625-44.102-1.053-8.673-2.98-16.726-5.439-24.275 19.619-55.419 69.949-64.681 83.924-63.545-37.357-7.624-82.163 23.008-96.861 34.097z"/></svg>